<?xml version="1.0" encoding="utf-8"?>
<!-- Generator: Adobe Illustrator 23.1.0, SVG Export Plug-In . SVG Version: 6.00 Build 0)  -->
<svg version="1.1" id="Layer_1" xmlns="http://www.w3.org/2000/svg" xmlns:xlink="http://www.w3.org/1999/xlink" x="0px" y="0px"
	 viewBox="0 0 595.3 595.3" style="enable-background:new 0 0 595.3 595.3;" xml:space="preserve">
<style type="text/css">
	.st0{fill:#FFFFFF;}
</style>
<path class="st0" d="M0,316.2c0-12.4,0-24.8,0-37.2c0.3-1.7,0.8-3.3,1-5c4.9-59.5,25.3-113.2,62.6-159.7
	c57.3-71.6,132.3-110,224-114c63.6-2.7,122.6,13.8,175.1,50c84.6,58.3,129.3,139.4,132.5,242.4c1.7,56.1-12.4,108.7-41.6,156.6
	c-47,77.1-115.1,124.4-204,141.4c-11,2.1-22.2,3.1-33.3,4.7c-12.4,0-24.8,0-37.2,0c-7.3-0.9-14.5-1.7-21.8-2.7
	c-59.3-8.5-111.6-32.2-156.3-72c-51.7-45.9-84-103-96.3-171.1C2.6,338.5,1.5,327.3,0,316.2z M137.9,295.1c0,44.2,0,88.4,0,132.5
	c0,18.7,8.6,27.4,27.3,27.4c87.8,0,175.6,0,263.4,0c18.3,0,27.1-8.9,27.1-27c0-88.4,0-176.7,0-265.1c0-18.6-8.8-27.4-27.4-27.4
	c-87.8,0-175.6,0-263.4,0c-18.3,0-27,8.8-27.1,27.1C137.8,206.8,137.9,251,137.9,295.1z"/>
<path class="st0" d="M308.8,403c-16.3,0-31.7,0-47.6,0c0-47.9,0-95.6,0-143.8c15.6,0,31.1,0,47.5,0c0,5.9,0,11.8,0,19.1
	c2.2-2.6,3.4-3.8,4.4-5.1c19-26.4,70-23.9,85.5,8.5c4.2,8.7,7.6,18.7,7.9,28.2c1,30.7,0.4,61.5,0.4,92.8c-15.5,0-31.1,0-47.2,0
	c-0.1-2-0.3-4.1-0.3-6.1c0-22.7,0.1-45.3-0.1-68c0-5-0.3-10.1-1.2-15c-2.4-13.5-11.3-20.9-24-20.5c-12.4,0.4-23.5,10.5-24.8,22.7
	c-0.5,4-0.5,8.1-0.5,12.2c0,22.7,0,45.3,0,68C308.8,398.3,308.8,400.6,308.8,403z"/>
<path class="st0" d="M186.4,259c16.1,0,31.5,0,47.3,0c0,48,0,95.7,0,143.8c-15.8,0-31.4,0-47.3,0C186.4,354.9,186.4,307.2,186.4,259
	z"/>
<path class="st0" d="M210.7,189.3c15.8,0.1,26.6,10.4,26.6,25.2c-0.1,14.3-11.6,24.7-27.4,24.6c-15.7-0.1-26.6-10.6-26.5-25.4
	C183.5,199.1,194.7,189.1,210.7,189.3z"/>
</svg>
