<?xml version="1.0" encoding="utf-8"?>
<!-- Generator: Adobe Illustrator 23.1.0, SVG Export Plug-In . SVG Version: 6.00 Build 0)  -->
<svg version="1.1" id="Layer_1" xmlns="http://www.w3.org/2000/svg" xmlns:xlink="http://www.w3.org/1999/xlink" x="0px" y="0px"
	 viewBox="0 0 595.3 595.3" style="enable-background:new 0 0 595.3 595.3;" xml:space="preserve">
<style type="text/css">
	.st0{fill-rule:evenodd;clip-rule:evenodd;}
</style>
<path id="Path_306" class="st0" d="M409.8,0H185.5C83,0.4,0,95.2,0,212.1l0,0c-0.3,116.8,82.5,211.8,185,212.1c0.2,0,0.4,0,0.6,0
	h148.8L297.6,574c-0.1,11.6,8,21.1,18.2,21.3c5.1,0.1,10.1-2.3,13.6-6.5l121-168.9c84.7-21.7,144.9-107.5,144.9-206.5l0,0
	C595.7,96,512.7,0.5,409.8,0z M514.9,333.5c-27.8,31.9-65.7,49.9-105.2,49.9H185.5c-82.4-1-148.6-77.9-147.7-171.9
	c0.8-92.6,66.5-167.5,147.7-168.4h223.2c82.3,0.3,148.8,76.4,148.8,170.2C557.7,258.2,542.4,301.4,514.9,333.5L514.9,333.5z"/>
<ellipse id="Ellipse_1" cx="191.9" cy="218" rx="50.3" ry="57.3"/>
<ellipse id="Ellipse_2" cx="297.6" cy="218" rx="50.3" ry="57.3"/>
<ellipse id="Ellipse_3" cx="403.4" cy="218" rx="50.3" ry="57.3"/>
</svg>
