<?xml version="1.0" encoding="utf-8"?>
<!-- Generator: Adobe Illustrator 23.1.0, SVG Export Plug-In . SVG Version: 6.00 Build 0)  -->
<svg version="1.1" id="Layer_1" xmlns="http://www.w3.org/2000/svg" xmlns:xlink="http://www.w3.org/1999/xlink" x="0px" y="0px"
	 viewBox="0 0 595.3 595.3" style="enable-background:new 0 0 595.3 595.3;" xml:space="preserve">
<style type="text/css">
	.st0{fill:#FFFFFF;}
</style>
<path class="st0" d="M594.7,298.2c-0.1,164.1-133.4,297.3-297.5,297.1C133.2,595.2-0.1,461.6,0,297.6C0.1,133.7,133.7,0.3,297.7,0.5
	C461.9,0.7,594.8,133.9,594.7,298.2z M326.7,317.6c3.1,0,5.3,0,7.5,0c18.7,0,37.4,0,56.1,0c7.2,0,8.5-1.2,8.5-8.1
	c0.1-22.2-0.1-44.4,0.1-66.6c0-5.7-2-8.1-8-8.1c-20.8,0.2-41.5,0.1-62.3,0.1c-2.2,0-4.4,0-6.6,0c0-13.4,0-26,0-39.1c2.7,0,5,0,7.2,0
	c20.6,0,41.1-0.1,61.7,0.1c4.8,0,8-1.1,8-6.7c-0.1-22.6,0-45.2,0-67.9c0-4.5-1.9-7-6.6-7c-27.3,0.3-54.7-0.4-82,1.3
	c-31.1,1.9-53,21.1-58.3,51.8c-3.4,19.5-2.9,39.6-4.1,59.5c-0.2,2.6,0,5.1,0,8c-15.6,0-30.1,0.1-44.7,0c-4.4,0-7.2,1.2-7.2,6.2
	c0,23.4,0,46.9,0,70.3c0,4.1,2.1,6,6,6.2c2.1,0.1,4.1,0,6.2,0c13.1,0,26.2,0,39.7,0c0,3.2,0,5.6,0,8c0,48.7,0,97.5,0,146.2
	c0,8.8,0.9,9.8,10,9.8c19.5,0,39.1,0,58.6,0c9.2,0,10.2-1,10.2-10.2c0-48.5,0-97.1,0-145.6C326.7,323.3,326.7,320.8,326.7,317.6z"/>
</svg>
