<?xml version="1.0" encoding="utf-8"?>
<!-- Generator: Adobe Illustrator 23.1.0, SVG Export Plug-In . SVG Version: 6.00 Build 0)  -->
<svg version="1.1" id="Layer_1" xmlns="http://www.w3.org/2000/svg" xmlns:xlink="http://www.w3.org/1999/xlink" x="0px" y="0px"
	 viewBox="0 0 595.3 595.3" style="enable-background:new 0 0 595.3 595.3;" xml:space="preserve">
<style type="text/css">
	.st0{fill-rule:evenodd;clip-rule:evenodd;}
</style>
<path id="AI_send-2" class="st0" d="M576.8,0c-2-0.1-4,0.2-5.9,1L13.3,269.9c-10.1,3.2-15.6,14-12.4,24.1c1.4,4.4,4.4,8.2,8.4,10.6
	L170.1,378l-58.5,105.2l106.2-57.5l74.4,160.7c5.4,8.8,16.9,11.6,25.7,6.2c3.8-2.3,6.6-5.9,8-10.1L594.7,23.8
	c2.9-9.9-2.8-20.2-12.7-23.1C580.4,0.3,578.6,0,576.8,0z M308.9,533.8l-61.5-134.9l257-305.6L196.8,350.2L61.9,287.7L536.1,58.6
	L308.9,533.8z"/>
</svg>
