<?xml version="1.0" encoding="utf-8"?>
<!-- Generator: Adobe Illustrator 23.1.0, SVG Export Plug-In . SVG Version: 6.00 Build 0)  -->
<svg version="1.1" id="Layer_1" xmlns="http://www.w3.org/2000/svg" xmlns:xlink="http://www.w3.org/1999/xlink" x="0px" y="0px"
	 viewBox="0 0 595.3 595.3" style="enable-background:new 0 0 595.3 595.3;" xml:space="preserve">
<style type="text/css">
	.st0{fill-rule:evenodd;clip-rule:evenodd;}
</style>
<g id="phone_icon" transform="translate(-300 -395)">
	<ellipse id="Ellipse_4" cx="506.7" cy="686.8" rx="38.6" ry="38.6"/>
	<ellipse id="Ellipse_5" cx="598.7" cy="686.8" rx="38.6" ry="38.6"/>
	<ellipse id="Ellipse_6" cx="690.6" cy="686.8" rx="38.6" ry="38.6"/>
	<ellipse id="Ellipse_7" cx="506.7" cy="779.6" rx="38.6" ry="38.6"/>
	<ellipse id="Ellipse_8" cx="598.7" cy="779.6" rx="38.6" ry="38.6"/>
	<ellipse id="Ellipse_9" cx="690.6" cy="779.6" rx="38.6" ry="38.6"/>
	<ellipse id="Ellipse_10" cx="506.7" cy="871.5" rx="38.6" ry="38.6"/>
	<ellipse id="Ellipse_11" cx="598.7" cy="871.5" rx="38.6" ry="38.6"/>
	<ellipse id="Ellipse_12" cx="690.6" cy="871.5" rx="38.6" ry="38.6"/>
	<path id="Path_325" class="st0" d="M885.4,563.5c-171.2-126.7-405.2-126.7-576.4,0c-9.2,8-11.7,21.3-5.9,32.1l40.6,76
		c3.9,8.7,14.1,12.7,22.8,8.8c1-0.5,2-1,2.9-1.7c27.4-19.8,57.4-35.8,89.1-47.5c10.3-4.8,15.5-16.5,11.9-27.3l-9.9-44
		c44.4-14.7,90.9-22.4,137.7-22.6c46.8,0.3,93.2,7.9,137.7,22.6l-9.9,44c-3.1,10.8,1.9,22.2,11.9,27.3
		c31.5,12.2,61.4,28.1,89.1,47.5c8.5,5.3,19.6,2.7,25-5.7c0.3-0.5,0.5-0.9,0.8-1.4l40.6-76C897.7,584.3,894.6,571.5,885.4,563.5z"/>
</g>
</svg>
