<?xml version="1.0" encoding="utf-8"?>
<!-- Generator: Adobe Illustrator 23.1.0, SVG Export Plug-In . SVG Version: 6.00 Build 0)  -->
<svg version="1.1" id="Layer_1" xmlns="http://www.w3.org/2000/svg" xmlns:xlink="http://www.w3.org/1999/xlink" x="0px" y="0px"
	 viewBox="0 0 595.3 595.3" style="enable-background:new 0 0 595.3 595.3;" xml:space="preserve">
<style type="text/css">
	.st0{fill-rule:evenodd;clip-rule:evenodd;}
</style>
<g id="Group_18">
	<path id="Path_319" class="st0" d="M554,75H41.3C19.2,74.7,1,92.5,0.7,114.7c0,0.3,0,0.6,0,0.9v364.2
		c-0.2,22.2,17.5,40.3,39.7,40.6c0.3,0,0.6,0,0.9,0H554c22.2,0.2,40.3-17.5,40.6-39.7c0-0.3,0-0.6,0-0.9V115.5
		c0.2-22.2-17.5-40.3-39.7-40.6C554.6,75,554.3,75,554,75z M556.9,479.7c-0.1,2.1-1.8,3.8-4,4H41.3c-2.1-0.1-3.8-1.8-4-4V115.5
		c0.1-2.1,1.8-3.8,4-4H554c2.1,0.1,3.8,1.8,4,4v364.2H556.9z"/>
	<path id="Path_320" class="st0" d="M528.2,131.4L300.6,295.7c-2.2,1-4.7,1-6.9,0L66.1,131.4c-6.9-4-13.9,5-7.9,9.9l222.7,222.7
		c9.4,8.9,24.2,8.9,33.6,0l222.7-222.7c2.3-2.9,1.8-7.2-1.1-9.5C533.8,130,530.7,129.8,528.2,131.4z"/>
</g>
</svg>
