<?xml version="1.0" encoding="utf-8"?>
<!-- Generator: Adobe Illustrator 23.1.0, SVG Export Plug-In . SVG Version: 6.00 Build 0)  -->
<svg version="1.1" id="Layer_1" xmlns="http://www.w3.org/2000/svg" xmlns:xlink="http://www.w3.org/1999/xlink" x="0px" y="0px"
	 viewBox="0 0 595.3 595.3" style="enable-background:new 0 0 595.3 595.3;" xml:space="preserve">
<path id="Path_50" d="M132.8,74.4H170c10.3,0,18.6-8.3,18.6-18.6V18.6C188.6,8.3,180.3,0,170,0h-37.2c-10.3,0-18.6,8.3-18.6,18.6
	c0,0,0,0,0,0v37.2C114.2,66.1,122.6,74.4,132.8,74.4L132.8,74.4z"/>
<path id="Path_291" d="M430.5,74.4h37.2c10.3,0,18.6-8.3,18.6-18.6V18.6c0-10.3-8.3-18.6-18.6-18.6h-37.2
	c-10.3,0-18.6,8.3-18.6,18.6c0,0,0,0,0,0v37.2C411.9,66.1,420.2,74.4,430.5,74.4L430.5,74.4z"/>
<path id="Path_52" d="M595.3,186V37.2c0-20.5-16.6-37.2-37.2-37.2c0,0,0,0,0,0h-18.6c-10.3,0-18.6,8.3-18.6,18.6V93
	c0,10.3-8.3,18.6-18.6,18.6H390.7c-10.3,0-18.6-8.3-18.6-18.6V18.6C372,8.3,363.7,0,353.4,0H241.8c-10.3,0-18.6,8.3-18.6,18.6V93
	c0,10.3-8.3,18.6-18.6,18.6H93c-10.3,0-18.6-8.3-18.6-18.6V18.6C74.4,8.3,66.1,0,55.8,0c0,0,0,0,0,0H37.2C16.7,0,0,16.6,0,37.2
	c0,0,0,0,0,0V186H595.3z"/>
<path id="Path_53" d="M2.6,260.4v297.6c0,20.5,16.6,37.2,37.2,37.2c0,0,0,0,0,0h520.9c20.5,0,37.2-16.7,37.2-37.2c0,0,0,0,0,0V260.4
	H2.6z"/>
</svg>
