<?xml version="1.0" encoding="utf-8"?>
<!-- Generator: Adobe Illustrator 23.1.0, SVG Export Plug-In . SVG Version: 6.00 Build 0)  -->
<svg version="1.1" id="Layer_1" xmlns="http://www.w3.org/2000/svg" xmlns:xlink="http://www.w3.org/1999/xlink" x="0px" y="0px"
	 viewBox="0 0 595.3 595.3" style="enable-background:new 0 0 595.3 595.3;" xml:space="preserve">
<style type="text/css">
	.st0{fill:#E58E46;}
</style>
<path id="AI_mappointer-2" class="st0" d="M484.2,186.5C484.2,83.5,400.6,0,297.6,0c-103,0-186.5,83.5-186.5,186.5
	c0.2,30,7.3,59.5,20.8,86.3l0,0l138.9,305.6c4.8,10,14.7,16.5,25.8,16.9c11.2-0.1,21.3-6.7,25.8-16.9l138.9-305.6l0,0
	C476.4,246.6,484.3,216.8,484.2,186.5z M192.5,80.4c58.1-57.9,152.1-57.8,210,0.3s57.8,152.1-0.3,210s-152.1,57.8-210-0.3
	c-27.8-27.8-43.3-65.5-43.3-104.8C149,146.1,164.7,108.3,192.5,80.4z"/>
</svg>
