<?xml version="1.0" encoding="utf-8"?>
<!-- Generator: Adobe Illustrator 23.1.0, SVG Export Plug-In . SVG Version: 6.00 Build 0)  -->
<svg version="1.1" id="Layer_1" xmlns="http://www.w3.org/2000/svg" xmlns:xlink="http://www.w3.org/1999/xlink" x="0px" y="0px"
	 viewBox="0 0 595.3 595.3" style="enable-background:new 0 0 595.3 595.3;" xml:space="preserve">
<style type="text/css">
	.st0{fill:#FFFFFF;}
</style>
<path class="st0" d="M297.8,593.7C134.2,593.7,1.4,461.1,1.6,297.6C1.8,131.1,137.8-0.1,301,1.6c161.9,1.7,295.6,135.1,292.7,301.6
	C590.8,462.1,461.5,593.3,297.8,593.7z M292.5,464.6c0-0.3,0-0.5,0-0.7c9.2,0,18.3,0.3,27.5,0c23.6-0.9,47.4-0.5,70.8-3.3
	c42.7-5.1,73.2-37.1,78.2-79.9c1.6-14.2,2.2-28.5,2.4-42.8c0.4-29.1,0.5-58.3,0.1-87.5c-0.2-14.8-0.7-29.7-2.6-44.3
	c-4.1-30.7-19.1-54.7-46.9-69.6c-16-8.6-33.6-11.7-51.6-12c-35.1-0.6-70.3-1.1-105.4-0.9c-16.9,0.1-34,0.9-50.8,2.8
	c-39.1,4.3-69.4,30.8-77.7,69.2c-3.5,16.3-4.6,33.3-4.7,50c-0.1,43.3-0.3,86.6,1.8,129.9c2.4,48,37.8,82.9,85.7,86.4
	C243.5,463.4,268,463.7,292.5,464.6z"/>
<path class="st0" d="M441.7,293.5c-0.6,24.8-0.8,49.1-1.9,73.4c-0.8,19-6.1,36.4-21.1,49.5c-11.5,10-25.2,14.3-39.9,15.2
	c-19.4,1.1-38.9,1.8-58.4,1.7c-32.1-0.1-64.3-0.5-96.4-1.8c-19.1-0.8-36-7.8-48.1-23.8c-8.3-11-12.4-23.8-12.7-37.3
	c-0.9-37.9-1.3-75.9-1.4-113.9c0-15.8,0.4-31.7,2.4-47.3c3.7-30.2,24.4-50,54.7-53.3c11.7-1.3,23.6-2,35.4-2
	c35.6-0.2,71.3-0.1,106.9,0.4c10.1,0.1,20.4,1,30.2,3.1c27.1,5.9,44,25.3,47.4,53.1c0.3,2.6,0.9,5.3,0.9,7.9
	C440.5,243.7,441.1,268.9,441.7,293.5z M301.6,381c48.7-0.2,87.4-39.6,87.3-88.7c-0.1-47.3-40.3-86.7-88.3-86.1
	c-51.5,0.6-87.6,43.9-86.6,89.9C215.1,342.1,254.6,381.2,301.6,381z M372,202.8c0.1,11.1,9.7,20.4,20.7,20.1
	c10.9-0.3,20.1-9.6,20.1-20.3c0.1-11-9.4-20.3-20.5-20.3C381.1,182.4,371.9,191.7,372,202.8z"/>
<path class="st0" d="M301.4,236.8c31.6,0,57,25.2,57,56.8c0.1,31.3-25.6,57-57,57c-31.4,0-57-25.5-57.1-56.9
	C244.3,262.2,269.8,236.8,301.4,236.8z"/>
</svg>
