<?xml version="1.0" encoding="utf-8"?>
<!-- Generator: Adobe Illustrator 23.1.0, SVG Export Plug-In . SVG Version: 6.00 Build 0)  -->
<svg version="1.1" id="Layer_1" xmlns="http://www.w3.org/2000/svg" xmlns:xlink="http://www.w3.org/1999/xlink" x="0px" y="0px"
	 viewBox="0 0 595.3 595.3" style="enable-background:new 0 0 595.3 595.3;" xml:space="preserve">
<path id="Path_328" d="M297.6,372L297.6,372c82.1,0.1,148.7-66.3,148.8-148.4c0-0.1,0-0.3,0-0.4v-74.4C446.6,66.7,380.1,0.1,298.1,0
	c-0.1,0-0.3,0-0.4,0l0,0c-82.1-0.1-148.7,66.3-148.8,148.4c0,0.1,0,0.3,0,0.4v74.4c-0.1,82.1,66.4,148.7,148.4,148.8
	C297.4,372,297.5,372,297.6,372z M186.5,148.8c0.2-29.7,11.9-58.2,32.7-79.4c21-21.1,49.6-32.9,79.4-32.7
	c29.7,0,58.3,11.8,79.4,32.7c21.1,21,32.9,49.6,32.8,79.4v74.4c-0.2,29.7-11.9,58.2-32.7,79.4c-21,21.1-49.6,32.9-79.4,32.7
	c-29.7,0-58.3-11.8-79.4-32.7c-21.1-21-32.9-49.6-32.8-79.3V148.8z"/>
<path id="Path_329" d="M372,406.7v114.1L218.2,406.7C56.6,428.5,0,512.9,0,512.9v44.6c0,20.8,16.9,37.7,37.7,37.7h531.8
	c14.1-0.2,25.6-11.6,25.9-25.7v-55.6C595.3,513.8,537.7,427.6,372,406.7z"/>
<path id="Path_328_1_" d="M297.6,372L297.6,372c82.1,0.1,148.7-66.3,148.8-148.4c0-0.1,0-0.3,0-0.4v-74.4
	C446.6,66.7,380.1,0.1,298.1,0c-0.1,0-0.3,0-0.4,0l0,0c-82.1-0.1-148.7,66.3-148.8,148.4c0,0.1,0,0.3,0,0.4v74.4
	c-0.1,82.1,66.4,148.7,148.4,148.8C297.4,372,297.5,372,297.6,372z M186.5,148.8c0.2-29.7,11.9-58.2,32.7-79.4
	c21-21.1,49.6-32.9,79.4-32.7c29.7,0,58.3,11.8,79.4,32.7c21.1,21,32.9,49.6,32.8,79.4v74.4c-0.2,29.7-11.9,58.2-32.7,79.4
	c-21,21.1-49.6,32.9-79.4,32.7c-29.7,0-58.3-11.8-79.4-32.7c-21.1-21-32.9-49.6-32.8-79.3V148.8z"/>
<path id="Path_329_1_" d="M372,406.7v114.1L218.2,406.7C56.6,428.5,0,512.9,0,512.9v44.6c0,20.8,16.9,37.7,37.7,37.7h531.8
	c14.1-0.2,25.6-11.6,25.9-25.7v-55.6C595.3,513.8,537.7,427.6,372,406.7z"/>
<path id="Path_328_2_" d="M297.6,372L297.6,372c82.1,0.1,148.7-66.3,148.8-148.4c0-0.1,0-0.3,0-0.4v-74.4
	C446.6,66.7,380.1,0.1,298.1,0c-0.1,0-0.3,0-0.4,0l0,0c-82.1-0.1-148.7,66.3-148.8,148.4c0,0.1,0,0.3,0,0.4v74.4
	c-0.1,82.1,66.4,148.7,148.4,148.8C297.4,372,297.5,372,297.6,372z M186.5,148.8c0.2-29.7,11.9-58.2,32.7-79.4
	c21-21.1,49.6-32.9,79.4-32.7c29.7,0,58.3,11.8,79.4,32.7c21.1,21,32.9,49.6,32.8,79.4v74.4c-0.2,29.7-11.9,58.2-32.7,79.4
	c-21,21.1-49.6,32.9-79.4,32.7c-29.7,0-58.3-11.8-79.4-32.7c-21.1-21-32.9-49.6-32.8-79.3V148.8z"/>
<path id="Path_329_2_" d="M372,406.7v114.1L218.2,406.7C56.6,428.5,0,512.9,0,512.9v44.6c0,20.8,16.9,37.7,37.7,37.7h531.8
	c14.1-0.2,25.6-11.6,25.9-25.7v-55.6C595.3,513.8,537.7,427.6,372,406.7z"/>
<path id="Path_328_3_" d="M297.6,372L297.6,372c82.1,0.1,148.7-66.3,148.8-148.4c0-0.1,0-0.3,0-0.4v-74.4
	C446.6,66.7,380.1,0.1,298.1,0c-0.1,0-0.3,0-0.4,0l0,0c-82.1-0.1-148.7,66.3-148.8,148.4c0,0.1,0,0.3,0,0.4v74.4
	c-0.1,82.1,66.4,148.7,148.4,148.8C297.4,372,297.5,372,297.6,372z M186.5,148.8c0.2-29.7,11.9-58.2,32.7-79.4
	c21-21.1,49.6-32.9,79.4-32.7c29.7,0,58.3,11.8,79.4,32.7c21.1,21,32.9,49.6,32.8,79.4v74.4c-0.2,29.7-11.9,58.2-32.7,79.4
	c-21,21.1-49.6,32.9-79.4,32.7c-29.7,0-58.3-11.8-79.4-32.7c-21.1-21-32.9-49.6-32.8-79.3V148.8z"/>
<path id="Path_329_3_" d="M372,406.7v114.1L218.2,406.7C56.6,428.5,0,512.9,0,512.9v44.6c0,20.8,16.9,37.7,37.7,37.7h531.8
	c14.1-0.2,25.6-11.6,25.9-25.7v-55.6C595.3,513.8,537.7,427.6,372,406.7z"/>
</svg>
