<?xml version="1.0" encoding="utf-8"?>
<!-- Generator: Adobe Illustrator 23.1.0, SVG Export Plug-In . SVG Version: 6.00 Build 0)  -->
<svg version="1.1" id="Layer_1" xmlns="http://www.w3.org/2000/svg" xmlns:xlink="http://www.w3.org/1999/xlink" x="0px" y="0px"
	 viewBox="0 0 595.3 595.3" style="enable-background:new 0 0 595.3 595.3;" xml:space="preserve">
<style type="text/css">
	.st0{fill:#FFFFFF;}
</style>
<path class="st0" d="M315.1,595.3c-11.6,0-23.3,0-34.9,0c-1.5-0.3-3-0.8-4.5-1c-36.5-2.4-71.6-11.1-104.3-27.3
	C80.1,522.1,24.2,449.5,4.7,349.5c-2.2-11.3-3.2-22.9-4.7-34.4c0-11.6,0-23.3,0-34.9c0.3-1.7,0.9-3.3,1-5c2.9-41.5,13.7-81,34-117.2
	C89.8,60.5,173.5,7.4,285.2,0.6c53.5-3.3,104.6,8.2,151.5,34.3c98,54.5,151.1,138.4,158.1,250.3c3.3,53.7-8.5,104.9-34.5,152.1
	c-46.2,83.9-116.6,135.2-210.9,153.4C338.2,592.8,326.6,593.7,315.1,595.3z M85.1,434.1c0.6,0.4,1.2,0.9,1.8,1.2
	c68.5,40.7,140.9,47.8,216.2,23.1c53.3-17.5,94.2-51.7,124.3-98.8c27.5-43,41.6-90,41.3-141.1c0-6.3,1.7-10.2,6.7-13.9
	c14.3-10.7,26.1-23.9,36-38.5c-15.5,4.2-31.1,8.5-47.8,13.1c8.4-8.2,15.9-14.8,22.5-22.3c6.6-7.5,11.4-16.3,14.4-27
	c-2.3,1.1-3.7,1.8-5,2.5c-14.3,7.9-29.5,13.5-45.4,17.3c-3.5,0.9-6,0.4-8.8-2.3c-26.6-25.5-65.9-31.6-99.1-15.6
	c-32.9,15.8-52.5,50.2-49.4,86.8c0.4,4.1,0.9,8.2,1.4,12.9c-73.8-5.3-133.8-36-182.1-92.6c-21.1,46.6-12.3,85.4,26.1,117.7
	c-0.3,0.5-0.5,1-0.8,1.5c-12.3-3.5-24.7-6.9-36.9-10.3c-4.4,34.5,24.1,70.9,68.7,85.9c-12.8,3.7-25.1,3.1-38.3,1.8
	c14.7,37.4,41.4,57.4,81.9,61.2C174.2,425.6,132.1,437,85.1,434.1z"/>
</svg>
