<?xml version="1.0" encoding="utf-8"?>
<!-- Generator: Adobe Illustrator 24.0.2, SVG Export Plug-In . SVG Version: 6.00 Build 0)  -->
<svg version="1.1" id="Layer_1" xmlns="http://www.w3.org/2000/svg" xmlns:xlink="http://www.w3.org/1999/xlink" x="0px" y="0px"
	 viewBox="0 0 595.28 595.28" style="enable-background:new 0 0 595.28 595.28;" xml:space="preserve">
<style type="text/css">
	.st0{fill:#E58E44;}
</style>
<path class="st0" d="M596,278.59c0,12.7,0,25.4,0,38.1c-0.33,1.32-0.86,2.63-0.96,3.97c-3.07,41.29-13.91,80.46-33.91,116.65
	c-46.27,83.76-116.37,135.19-210.41,153.29c-10.82,2.08-21.83,3.15-32.76,4.68c-12.67,0-25.35,0-38.02,0
	c-1.51-0.34-3.01-0.8-4.54-1.01c-11.55-1.62-23.21-2.67-34.65-4.87C113.95,565.06,15.12,455.83,3.3,327.05
	c-5.41-58.96,4.45-115.22,32.65-167.39C81.83,74.81,152.42,22.99,247.15,4.67c10.83-2.09,21.86-3.14,32.79-4.67
	c12.67,0,25.35,0,38.02,0c1.32,0.33,2.63,0.85,3.97,0.95c40.79,3.07,79.49,13.75,115.35,33.44
	c84.24,46.25,135.79,116.73,154.04,211.36C593.41,256.59,594.47,267.64,596,278.59z M302.36,230.58c1.64,1.9,2.82,3.2,3.93,4.56
	c28.94,35.22,57.87,70.45,86.81,105.67c12.46,15.16,24.72,30.49,37.49,45.38c9.07,10.57,20.97,14.06,34.37,10.25
	c13.2-3.76,21.05-13.03,23.57-26.43c2.04-10.81-1.43-20.26-8.35-28.68C429.96,280.23,379.84,219.07,329.59,158
	c-15.42-18.74-39.32-18.71-54.63-0.03c-13.82,16.86-27.47,33.86-41.2,50.8c-35.93,44.35-71.89,88.68-107.79,133.06
	c-12.98,16.05-11.43,37.16,3.51,49.43c15.14,12.44,34.93,9.51,48.5-7.23c18.73-23.09,37.43-46.2,56.15-69.29
	C256.72,286.87,279.31,259.01,302.36,230.58z"/>
</svg>
