<?xml version="1.0" encoding="utf-8"?>
<!-- Generator: Adobe Illustrator 23.1.0, SVG Export Plug-In . SVG Version: 6.00 Build 0)  -->
<svg version="1.1" id="Слой_1" xmlns="http://www.w3.org/2000/svg" xmlns:xlink="http://www.w3.org/1999/xlink" x="0px" y="0px"
	 viewBox="0 0 566.9 566.9" style="enable-background:new 0 0 566.9 566.9;" xml:space="preserve">
<style type="text/css">
	.st0{fill:#DF8544;stroke:#DF8544;stroke-miterlimit:10;}
	.st1{fill:#FFFFFF;stroke:#FFFFFF;stroke-miterlimit:10;}
	.st2{fill:#DF8544;stroke:#DF8544;stroke-width:1;stroke-miterlimit:9.9998;}
	.st3{fill:#DF8544;stroke:#DF8544;stroke-width:1;stroke-miterlimit:9.9996;}
	.st4{fill:#FFFFFF;}
	.st5{fill:#DF8544;}
</style>
<path class="st0" d="M30.3,254.5c-2.9,26.1,3.2,49.6,21,68.9c21.8,23.7,49.1,31.9,80.7,26c6.2-1.2,9.8-4.3,10.4-11
	c0.8-9.1,6-15.8,13.2-21.1c6.3-4.6,12.6-9.1,19.5-14.1c4.5,12.3-9.6,15.4-12.5,23.7c0.4,0.6,0.8,1.1,1.3,1.7c2.8-1.7,6.1-3,8.4-5.3
	c7.2-7.3,9.1-16.9,10.8-26.5c0.9-5.4,2.1-10.7,7.4-14.4c3.1,24-5.7,51.1-25.6,64.9c-38.4,26.5-87.2,21.2-118.2-13.5
	C28.3,313.1,21.1,279.1,30.3,254.5z"/>
<path class="st1" d="M30.3,252.6c-2.9,26.1,3.2,49.6,21,68.9c21.8,23.7,49.1,31.9,80.7,26c6.2-1.2,9.8-4.3,10.4-11
	c0.8-9.1,6-15.8,13.2-21.1c6.3-4.6,12.6-9.1,19.5-14.1c4.5,12.3-9.6,15.4-12.5,23.7c0.4,0.6,0.8,1.1,1.3,1.7c2.8-1.7,6.1-3,8.4-5.3
	c7.2-7.3,9.1-16.9,10.8-26.5c0.9-5.4,2.1-10.7,7.4-14.4c3.1,24-5.7,51.1-25.6,64.9c-38.4,26.5-87.2,21.2-118.2-13.5
	C28.3,311.2,21.1,277.1,30.3,252.6z"/>
<ellipse class="st2" cx="62.3" cy="216.7" rx="12.1" ry="12.1"/>
<ellipse transform="matrix(0.1269 -0.9919 0.9919 0.1269 -224.9038 275.8261)" class="st2" cx="44.2" cy="265.7" rx="9.2" ry="9.2"/>
<ellipse class="st2" cx="50.7" cy="293.2" rx="8" ry="8"/>
<ellipse class="st2" cx="62.3" cy="312.9" rx="8" ry="8"/>
<ellipse class="st2" cx="81.5" cy="325.9" rx="6.6" ry="6.6"/>
<ellipse class="st2" cx="47.1" cy="240.8" rx="9.3" ry="9.3"/>
<ellipse class="st2" cx="87.3" cy="199.8" rx="10.4" ry="10.4"/>
<ellipse class="st2" cx="113.1" cy="193.5" rx="8.9" ry="8.9"/>
<ellipse class="st2" cx="136.2" cy="197" rx="7.6" ry="7.6"/>
<ellipse class="st2" cx="155" cy="210.3" rx="6.5" ry="6.5"/>
<ellipse class="st3" cx="170.4" cy="222.3" rx="5.5" ry="5.5"/>
<path class="st4" d="M249.1,303.5c0,7.6-2.6,14-7.7,19.2s-11.5,7.8-19.1,7.8s-14-2.6-19.2-7.8s-7.8-11.6-7.8-19.2
	c0-7.2,2.4-13.4,7.1-18.6c5.2-5.8,11.8-8.7,19.8-8.7c7.9,0,14.5,2.9,19.7,8.6C246.7,290.1,249.1,296.3,249.1,303.5z M242.3,303.6
	c0-5.7-1.9-10.6-5.8-14.7c-3.9-4.1-8.6-6.2-14.3-6.2s-10.4,2.1-14.3,6.2c-3.9,4.1-5.8,9-5.8,14.7c0,3.7,0.9,7.1,2.6,10.3
	c1.8,3.3,4.2,5.8,7.3,7.6c3.1,1.8,6.5,2.7,10.1,2.7c7.8,0,13.6-3.4,17.4-10.1C241.4,310.8,242.3,307.3,242.3,303.6z"/>
<path class="st4" d="M305.7,303.5c0,7.6-2.6,14-7.7,19.2s-11.5,7.8-19.1,7.8s-14-2.6-19.2-7.8c-5.2-5.2-7.8-11.6-7.8-19.2
	c0-7.2,2.4-13.4,7.1-18.6c5.2-5.8,11.8-8.7,19.8-8.7c7.9,0,14.5,2.9,19.7,8.6C303.3,290.1,305.7,296.3,305.7,303.5z M298.9,303.6
	c0-5.7-1.9-10.6-5.8-14.7s-8.6-6.2-14.3-6.2c-5.7,0-10.4,2.1-14.3,6.2s-5.8,9-5.8,14.7c0,3.7,0.9,7.1,2.6,10.3
	c1.8,3.3,4.2,5.8,7.3,7.6c3.1,1.8,6.5,2.7,10.1,2.7c7.8,0,13.6-3.4,17.4-10.1C298,310.8,298.9,307.3,298.9,303.6z"/>
<path class="st4" d="M362.3,329.2h-6.6v-8.9c-5.6,6.8-12.5,10.2-20.7,10.2c-7.5,0-13.8-2.7-18.9-8.1c-5.1-5.3-7.6-11.7-7.6-19.2
	c0-7.4,2.6-13.8,7.8-19.1c5.2-5.3,11.5-7.9,18.9-7.9c8.5,0,15.4,3.6,20.5,10.8v-29.4h6.6L362.3,329.2L362.3,329.2z M356.1,303.6
	c0-5.9-1.9-10.9-5.8-14.9s-8.7-6.1-14.6-6.1c-7.9,0-13.8,3.5-17.7,10.4c-1.9,3.3-2.8,6.8-2.8,10.4s0.9,7.1,2.8,10.4s4.4,5.9,7.5,7.7
	c3.1,1.8,6.5,2.8,10.1,2.8s7.1-0.9,10.3-2.7c3.3-1.8,5.8-4.3,7.5-7.4S356.1,307.5,356.1,303.6z"/>
<path class="st4" d="M442.5,329.2h-6.8V301c0-4.3-0.2-7.4-0.6-9.1c-0.7-3.3-2.2-5.7-4.7-7.4c-1.9-1.3-4.2-1.9-6.9-1.9
	c-3.3,0-6.3,1-8.9,2.9c-2.7,1.9-4.6,4.4-5.8,7.6c-1.2,3.1-1.8,8.4-1.8,15.8v20.2h-6.6v-26.4c0-4.8-0.2-8.1-0.5-9.9
	c-0.7-3.7-2.2-6.5-4.7-8.2c-1.9-1.3-4.2-2-6.9-2c-3.2,0-6.1,1-8.8,2.9c-2.6,1.9-4.5,4.3-5.7,7.4c-1.3,3.1-1.9,7.9-1.9,14.4v21.9
	h-6.6v-51.7h6.6v8.9c4.8-6.8,10.7-10.3,17.7-10.3c5.3,0,9.5,1.8,12.6,5.4c1.4,1.6,2.7,4,3.7,7c4.5-8.3,10.9-12.4,19.1-12.4
	c7.6,0,12.8,3.4,15.6,10.3c1.3,3.2,2,8.1,2,14.5v28.3H442.5z"/>
<path class="st4" d="M499,329.2h-6.6v-8.9c-5.6,6.8-12.5,10.2-20.7,10.2c-7.5,0-13.8-2.7-18.9-8.1c-5.1-5.3-7.6-11.7-7.6-19.2
	c0-7.4,2.6-13.8,7.8-19.1c5.2-5.3,11.5-7.9,18.9-7.9c8.5,0,15.4,3.6,20.5,10.8v-9.5h6.6L499,329.2L499,329.2z M492.9,303.6
	c0-5.9-1.9-10.9-5.8-14.9s-8.7-6.1-14.6-6.1c-7.9,0-13.8,3.5-17.7,10.4c-1.9,3.3-2.8,6.8-2.8,10.4s0.9,7.1,2.8,10.4s4.4,5.9,7.5,7.7
	c3.1,1.8,6.5,2.8,10.1,2.8s7.1-0.9,10.3-2.7c3.3-1.8,5.8-4.3,7.5-7.4S492.9,307.5,492.9,303.6z"/>
<path class="st4" d="M546.9,329.8h-6.6v-24.6c0-5.8-0.3-9.8-0.8-11.9c-1.6-6.9-6-10.3-13-10.3c-4,0-7.6,1.3-10.8,4
	c-3.2,2.6-5.3,5.9-6.3,9.9c-0.6,2.5-0.9,7.2-0.9,14v18.9h-6.7v-51.7h6.7v9.3c5.3-7.1,11.7-10.6,19.3-10.6c3.8,0,7.2,1,10.2,2.9
	s5.2,4.6,6.7,7.9s2.2,8.6,2.2,15.6L546.9,329.8L546.9,329.8z"/>
<path class="st4" d="M222.2,276.2h-18H194c-0.1,0.1-0.3,0.1-0.4,0.2c-2.6,1.3-6,3.8-8.6,9.2h11h16c0.1,0,0.2-0.1,0.3-0.2
	c0.4-0.2,1.1-0.6,2.1-1.1c0.4-0.2,1-0.4,1.8-0.7c0.3-0.1,1-0.3,1.8-0.5c0.3-0.1,1.1-0.2,2.1-0.3c0.6-0.1,1.3-0.1,2-0.1L222.2,276.2z
	"/>
<g>
	<path class="st5" d="M255.8,337.6c-0.8-0.4-1.5-0.5-2.1-0.5c-0.9,0-1.5,0.3-1.7,0.9c-0.1,0.2-0.1,0.9-0.1,1.9v2.4h3.7v2h-3.7V360
		h-2.3v-15.7h-2.3v-2h2.3v-2.8c0-1,0.1-1.8,0.2-2.3c0.2-0.8,0.7-1.4,1.3-1.8c0.6-0.3,1.2-0.5,2-0.5c0.7,0,1.6,0.2,2.7,0.5
		L255.8,337.6L255.8,337.6z"/>
	<path class="st5" d="M276.5,359.8h-2.3v-3c-1.9,2.3-4.3,3.5-7.1,3.5c-2.6,0-4.7-0.9-6.5-2.8c-1.7-1.8-2.6-4-2.6-6.6
		c0-2.5,0.9-4.7,2.7-6.5c1.8-1.8,3.9-2.7,6.5-2.7c2.9,0,5.2,1.2,7,3.7v-3.2h2.3V359.8z M274.4,351.1c0-2-0.7-3.7-2-5.1s-3-2.1-5-2.1
		c-2.7,0-4.7,1.2-6,3.5c-0.6,1.1-1,2.3-1,3.6s0.3,2.4,1,3.6c0.6,1.1,1.5,2,2.6,2.6s2.2,0.9,3.5,0.9c1.2,0,2.4-0.3,3.5-0.9
		s2-1.5,2.6-2.5C274.1,353.6,274.4,352.4,274.4,351.1z"/>
	<path class="st5" d="M308.1,359.8h-2.3v-9.6c0-1.5-0.1-2.5-0.2-3.1c-0.2-1.1-0.8-2-1.6-2.5c-0.7-0.4-1.4-0.6-2.4-0.6
		c-1.1,0-2.1,0.3-3,1s-1.6,1.5-2,2.6s-0.6,2.9-0.6,5.4v6.9h-2.3v-9c0-1.7-0.1-2.8-0.2-3.4c-0.2-1.3-0.8-2.2-1.6-2.8
		c-0.7-0.5-1.4-0.7-2.4-0.7c-1.1,0-2.1,0.3-3,1c-0.9,0.6-1.5,1.5-1.9,2.5c-0.4,1.1-0.7,2.7-0.7,4.9v7.5h-2.3v-17.7h2.3v3
		c1.6-2.3,3.7-3.5,6.1-3.5c1.8,0,3.2,0.6,4.3,1.8c0.5,0.6,0.9,1.4,1.3,2.4c1.6-2.8,3.7-4.2,6.5-4.2c2.6,0,4.4,1.2,5.3,3.5
		c0.5,1.1,0.7,2.8,0.7,5L308.1,359.8L308.1,359.8z"/>
	<path class="st5" d="M315.5,336.8c0,0.5-0.2,1-0.5,1.3c-0.4,0.4-0.8,0.5-1.3,0.5s-0.9-0.2-1.3-0.5c-0.4-0.4-0.5-0.8-0.5-1.3
		s0.2-1,0.5-1.3c0.4-0.4,0.8-0.5,1.3-0.5s1,0.2,1.3,0.5S315.5,336.2,315.5,336.8z M314.8,359.8h-2.3v-17.7h2.3V359.8z"/>
	<path class="st5" d="M321.4,359.8h-2.3v-24.5h2.3V359.8z"/>
	<path class="st5" d="M341,342.2l-10.5,24.1h-2.4l3.4-7.8l-7.3-16.3h2.4l6.1,13.6l5.9-13.6L341,342.2L341,342.2z"/>
	<path class="st5" d="M372.2,356.3c-1.8,2.7-4.5,4-8.3,4c-2.7,0-5-0.8-6.8-2.5c-1.9-1.7-2.9-3.9-2.9-6.6c0-1.7,0.4-3.3,1.3-4.8
		s2-2.6,3.5-3.4s3.2-1.2,5-1.2c2.4,0,4.5,0.6,6.1,1.9c0.8,0.6,1.4,1.3,1.9,2.2l-1.8,1.1c-1.6-2.1-3.7-3.1-6.4-3.1
		c-2.1,0-3.8,0.7-5.3,2c-1.5,1.4-2.2,3.1-2.2,5.1c0,1.3,0.3,2.5,1,3.6s1.6,2,2.7,2.6s2.4,0.9,3.8,0.9c2.6,0,4.7-1,6.4-3.1
		L372.2,356.3z"/>
	<path class="st5" d="M391.9,359.8h-2.3v-8.4c0-2-0.1-3.4-0.2-4.1c-0.6-2.3-2-3.5-4.4-3.5c-1.4,0-2.6,0.5-3.7,1.4s-1.8,2-2.1,3.4
		c-0.2,0.8-0.3,2.4-0.3,4.8v6.5h-2.3v-24.5h2.3v10c1.8-2.4,4-3.6,6.6-3.6c1.3,0,2.4,0.3,3.5,1c1,0.7,1.8,1.6,2.3,2.7
		s0.7,2.9,0.7,5.3v9H391.9z"/>
	<path class="st5" d="M399.4,336.8c0,0.5-0.2,1-0.5,1.3c-0.4,0.4-0.8,0.5-1.3,0.5s-0.9-0.2-1.3-0.5c-0.4-0.4-0.5-0.8-0.5-1.3
		s0.2-1,0.5-1.3c0.4-0.4,0.8-0.5,1.3-0.5s1,0.2,1.3,0.5S399.4,336.2,399.4,336.8z M398.7,359.8h-2.3v-17.7h2.3V359.8z"/>
	<path class="st5" d="M411.5,342.3l-1.2,1.9c-0.5-0.2-0.9-0.3-1.2-0.3c-1.8,0-3.1,1.3-3.8,3.8c-0.3,1-0.4,3-0.4,6.1v6h-2.3v-17.7
		h2.3v2.6c1.4-2,2.9-3,4.6-3C410.1,341.7,410.8,341.9,411.5,342.3z"/>
	<path class="st5" d="M431,351c0,2.6-0.9,4.8-2.6,6.6c-1.8,1.8-3.9,2.7-6.5,2.7s-4.8-0.9-6.5-2.7c-1.8-1.8-2.7-4-2.7-6.6
		c0-2.4,0.8-4.6,2.4-6.4c1.8-2,4-3,6.8-3c2.7,0,5,1,6.8,3C430.2,346.4,431,348.6,431,351z M428.6,351.1c0-1.9-0.7-3.6-2-5
		s-2.9-2.1-4.9-2.1s-3.6,0.7-4.9,2.1s-2,3.1-2,5c0,1.3,0.3,2.4,0.9,3.5s1.5,2,2.5,2.6c1.1,0.6,2.2,0.9,3.5,0.9
		c2.7,0,4.7-1.1,5.9-3.4C428.3,353.5,428.6,352.3,428.6,351.1z"/>
	<path class="st5" d="M453.6,350.9c0,2.6-0.9,4.8-2.6,6.6c-1.8,1.8-3.9,2.8-6.5,2.8c-2.8,0-5.2-1.2-7.1-3.5v9.5h-2.3v-24.1h2.3v3.2
		c1.8-2.5,4.1-3.7,7-3.7c2.5,0,4.7,0.9,6.5,2.7S453.6,348.4,453.6,350.9z M451.3,351c0-1.3-0.3-2.4-0.9-3.6c-0.6-1.1-1.5-2-2.5-2.6
		c-1.1-0.6-2.2-0.9-3.5-0.9c-2,0-3.7,0.7-5,2.1s-2,3.1-2,5.1c0,2.8,1.2,4.9,3.5,6.2c1.1,0.6,2.3,0.9,3.5,0.9c1.3,0,2.4-0.3,3.5-1
		c1-0.6,1.9-1.5,2.5-2.6C451,353.4,451.3,352.3,451.3,351z"/>
	<path class="st5" d="M465.9,342.3l-1.2,1.9c-0.5-0.2-0.9-0.3-1.2-0.3c-1.8,0-3.1,1.3-3.8,3.8c-0.3,1-0.4,3-0.4,6.1v6H457v-17.7h2.3
		v2.6c1.4-2,2.9-3,4.6-3C464.5,341.7,465.2,341.9,465.9,342.3z"/>
	<path class="st5" d="M485.4,359.8h-2.3v-3c-1.9,2.3-4.3,3.5-7.1,3.5c-2.5,0-4.7-0.9-6.5-2.8c-1.7-1.8-2.6-4-2.6-6.6
		c0-2.5,0.9-4.7,2.6-6.5s3.9-2.7,6.5-2.7c2.9,0,5.2,1.2,7,3.7v-3.2h2.3v17.6H485.4z M483.3,351.1c0-2-0.7-3.7-2-5.1s-3-2.1-5-2.1
		c-2.7,0-4.7,1.2-6,3.5c-0.6,1.1-1,2.3-1,3.6s0.3,2.4,1,3.6c0.6,1.1,1.5,2,2.6,2.6s2.2,0.9,3.5,0.9c1.2,0,2.4-0.3,3.5-0.9
		s2-1.5,2.6-2.5C483,353.6,483.3,352.4,483.3,351.1z"/>
	<path class="st5" d="M507.7,356.3c-1.8,2.7-4.5,4-8.3,4c-2.7,0-5-0.8-6.8-2.5c-1.9-1.7-2.9-3.9-2.9-6.6c0-1.7,0.4-3.3,1.3-4.8
		s2-2.6,3.5-3.4s3.2-1.2,5-1.2c2.4,0,4.5,0.6,6.1,1.9c0.8,0.6,1.4,1.3,1.9,2.2l-1.8,1.1c-1.6-2.1-3.7-3.1-6.4-3.1
		c-2.1,0-3.8,0.7-5.3,2c-1.5,1.4-2.2,3.1-2.2,5.1c0,1.3,0.3,2.5,1,3.6s1.6,2,2.7,2.6s2.4,0.9,3.8,0.9c2.6,0,4.7-1,6.4-3.1
		L507.7,356.3z"/>
	<path class="st5" d="M519.9,344.1h-3.6v15.7H514v-15.7h-3.1v-2h3.1v-6.6h2.3v6.6h3.6L519.9,344.1L519.9,344.1z"/>
	<path class="st5" d="M526,336.8c0,0.5-0.2,1-0.5,1.3c-0.4,0.4-0.8,0.5-1.3,0.5s-0.9-0.2-1.3-0.5c-0.4-0.4-0.5-0.8-0.5-1.3
		s0.2-1,0.5-1.3c0.4-0.4,0.8-0.5,1.3-0.5s1,0.2,1.3,0.5S526,336.2,526,336.8z M525.3,359.8H523v-17.7h2.3V359.8z"/>
	<path class="st5" d="M547.1,356.3c-1.8,2.7-4.5,4-8.3,4c-2.7,0-5-0.8-6.8-2.5c-1.9-1.7-2.9-3.9-2.9-6.6c0-1.7,0.4-3.3,1.3-4.8
		c0.9-1.5,2-2.6,3.5-3.4s3.2-1.2,5-1.2c2.4,0,4.5,0.6,6.1,1.9c0.8,0.6,1.4,1.3,1.9,2.2l-1.8,1.1c-1.6-2.1-3.7-3.1-6.4-3.1
		c-2.1,0-3.8,0.7-5.3,2c-1.5,1.4-2.2,3.1-2.2,5.1c0,1.3,0.3,2.5,1,3.6s1.6,2,2.7,2.6s2.4,0.9,3.8,0.9c2.6,0,4.7-1,6.4-3.1
		L547.1,356.3z"/>
</g>
</svg>
